{"title":"Che.Strano.Chiamarsi.Federico.2013.DVDRip.XviD.HORiZON-ArtSubs","uid":9928914,"size":1467973632,"categoryP":"video","categoryS":"movies","magnet":"?xt=urn:btih:b28297e30e23e6572cef33de2f34974b37dccd24&amp;dn=Che.Strano.Chiamarsi.Federico.2013.DVDRip.XviD.HORiZON-ArtSubs&amp;tr=udp%3A%2F%2Ftracker.openbittorrent.com%3A80&amp;tr=udp%3A%2F%2Fopen.demonii.com%3A1337&amp;tr=udp%3A%2F%2Ftracker.coppersurfer.tk%3A6969&amp;tr=udp%3A%2F%2Fexodus.desync.com%3A6969","seeders":9,"leechers":1,"uploader":"lletaif","files":1,"time":1397085943,"description":"Title:\nChe Strano Chiamarsi Federico\n\n\nCountry:\nItaly, 2013\n\n\nLanguage:\nItalian\n\n\nNo Subtitle\n\n\nIMDB: &lt;a href=&quot;\nhttp://www.imdb.com/title/tt2952634/&quot; rel=&quot;nofollow&quot; target=&quot;_NEW&quot;&gt;\nhttp://www.imdb.com/title/tt2952634/&lt;/a&gt;\n\n\nTrivia:\nOfficial Selection Venice Film Festival 2013\n\n\n\nMedia Info:\n\nGeneral\nComplete name                            : Che.Strano.Chiamarsi.Federico.2013.DVDRip.XviD.HORiZON-ArtSubs.avi\nFormat                                   : AVI\nFormat/Info                              : Audio Video Interleave\nFile size                                : 1.37 GiB\nDuration                                 : 1h 32mn\nOverall bit rate                         : 2 106 Kbps\n\nVideo\nID                                       : 0\nFormat                                   : MPEG-4 Visual\nFormat profile                           : Advanced Simple@L5\nFormat settings, BVOP                    : 1\nFormat settings, QPel                    : No\nFormat settings, GMC                     : No warppoints\nFormat settings, Matrix                  : Default (MPEG)\nCodec ID                                 : XVID\nCodec ID/Hint                            : XviD\nDuration                                 : 1h 32mn\nBit rate                                 : 1 649 Kbps\nWidth                                    : 640 pixels\nHeight                                   : 352 pixels\nDisplay aspect ratio                     : 16:9\nFrame rate                               : 25.000 fps\nColor space                              : YUV\nChroma subsampling                       : 4:2:0\nBit depth                                : 8 bits\nScan type                                : Progressive\nCompression mode                         : Lossy\nBits/(Pixel*Frame)                       : 0.293\nStream size                              : 1.07 GiB (78%)\nWriting library                          : XviD 1.1.2 (UTC 2006-11-01)\n\nAudio\nID                                       : 1\nFormat                                   : AC-3\nFormat/Info                              : Audio Coding 3\nMode extension                           : CM (complete main)\nFormat settings, Endianness              : Big\nCodec ID                                 : 2000\nDuration                                 : 1h 32mn\nBit rate mode                            : Constant\nBit rate                                 : 448 Kbps\nChannel count                            : 6 channels\nChannel positions                        : Front: L C R, Side: L R, LFE\nSampling rate                            : 48.0 KHz\nBit depth                                : 16 bits\nCompression mode                         : Lossy\nStream size                              : 298 MiB (21%)\nAlignment                                : Split accross interleaves\nInterleave, duration                     : 40 ms (1.00 video frame)\nInterleave, preload duration             : 500 ms\n\n","torrent":{"xt":"urn:btih:b28297e30e23e6572cef33de2f34974b37dccd24","amp;dn":"Che.Strano.Chiamarsi.Federico.2013.DVDRip.XviD.HORiZON-ArtSubs","amp;tr":["udp%3A%2F%2Ftracker.openbittorrent.com%3A80","udp%3A%2F%2Fopen.demonii.com%3A1337","udp%3A%2F%2Ftracker.coppersurfer.tk%3A6969","udp%3A%2F%2Fexodus.desync.com%3A6969"],"infoHash":"b28297e30e23e6572cef33de2f34974b37dccd24","infoHashBuffer":{"type":"Buffer","data":[178,130,151,227,14,35,230,87,44,239,51,222,47,52,151,75,55,220,205,36]},"announce":[],"urlList":[]}}